<svg width="184" height="183" viewBox="0 0 184 183" fill="none" xmlns="http://www.w3.org/2000/svg">
<g clip-path="url(#clip0)">
<path d="M121.785 74.7654L120.785 76.4974L121.178 82.6253C121.221 83.291 121.595 83.8936 122.175 84.2286L127.25 87.1586C127.831 87.4936 128.539 87.516 129.137 87.2203L134.641 84.4974L135.641 82.7654L121.785 74.7654Z" fill="url(#paint0_radial)"/>
<path d="M141.016 73.4556L127.16 65.4556L120.785 76.4974L134.641 84.4974L141.016 73.4556Z" fill="url(#paint1_linear)"/>
<g opacity="0.2">
<path opacity="0.2" d="M138.967 74.0046L133.569 83.3534L128.472 85.8722C128.32 85.9459 128.143 85.942 128 85.8595L122.925 82.9295C122.778 82.8445 122.686 82.6934 122.678 82.5272L122.311 76.8534L127.709 67.5046L138.967 74.0046ZM141.016 73.4556L127.16 65.4556L120.785 76.4974L121.178 82.6253C121.221 83.291 121.595 83.8936 122.175 84.2286L127.25 87.1586C127.831 87.4936 128.539 87.516 129.137 87.2203L134.641 84.4974L141.016 73.4556Z" fill="#424242"/>
</g>
<path d="M138.55 77.5167L123.619 72.4987C123.081 72.3208 122.787 71.7297 122.967 71.1872L123.07 70.8888C123.248 70.3506 123.839 70.0568 124.382 70.2372L139.313 75.2552C139.851 75.4331 140.145 76.0242 139.965 76.5667L139.862 76.8652C139.677 77.4051 139.09 77.7015 138.55 77.5167Z" fill="#BBDEFB"/>
<path d="M136.12 81.7256L121.189 76.7076C120.651 76.5297 120.357 75.9386 120.537 75.3961L120.64 75.0977C120.818 74.5595 121.409 74.2657 121.952 74.4461L136.883 79.4641C137.421 79.642 137.715 80.2331 137.535 80.7756L137.432 81.0741C137.247 81.614 136.66 81.9103 136.12 81.7256Z" fill="#90CAF9"/>
<path d="M161.301 58.3205C166.271 49.7122 163.321 38.7021 154.713 33.7321C146.105 28.7621 135.094 31.7122 130.124 40.3205C127.934 44.1137 127.439 48.3424 127.972 52.3685C128.462 56.0694 127.994 59.3902 126.628 61.2056C123.33 65.5886 125.819 67.8572 125.819 67.8572L139.606 75.8172C139.606 75.8172 142.816 76.8386 144.962 71.7906C145.852 69.7002 148.493 67.6344 151.944 66.2085C155.697 64.6574 159.111 62.1137 161.301 58.3205V58.3205Z" fill="url(#paint2_radial)"/>
<path d="M134.706 74.1655L134.649 74.133C134.307 73.8952 134.226 73.4266 134.461 73.089L136.136 70.6784C139.904 65.7524 145.488 60.5007 148.584 57.7677C148.113 57.1033 147.759 56.177 147.64 55.2134C147.562 54.568 147.589 53.9604 147.723 53.4084C146.658 52.6836 145.917 51.7476 145.458 50.7725C144.36 51.0045 143.01 50.9526 141.455 50.2455C141.067 50.0676 140.71 49.8849 140.391 49.6888C139.803 50.1463 139.094 50.6145 138.226 51.0888C137.709 51.3736 137.142 51.4964 136.561 51.4616L131.881 70.8778C131.783 71.2773 131.378 71.5286 130.979 71.4307C130.579 71.3328 130.328 70.9279 130.426 70.5283L135.119 51.039C135.004 50.9783 134.883 50.9083 134.771 50.8322C133.413 49.9442 132.472 48.304 132.588 47.0139C132.658 46.2229 133.099 45.6177 133.823 45.3139C134.405 45.0666 135.054 45.072 135.658 45.3165C136.267 45.5704 136.764 46.0595 137.013 46.659C137.552 47.975 137.122 49.3201 137.005 49.6334L136.924 49.9623C137.116 49.9402 137.31 49.8847 137.505 49.7776C138.003 49.5051 138.595 49.1487 139.162 48.7369C138.607 48.1682 138.264 47.5428 138.146 46.857C137.954 45.759 138.446 44.617 139.425 43.8715C139.854 43.5478 140.629 43.2561 141.406 43.52C142.03 43.7299 142.486 44.2591 142.693 45.0018C142.95 45.9357 142.848 47.1929 141.555 48.6229C141.717 48.7111 141.894 48.7956 142.077 48.8783C143.198 49.3868 144.172 49.4699 144.982 49.3371C144.852 48.7021 144.832 48.0961 144.907 47.5562C145.093 46.2435 145.828 45.2818 146.876 44.9863C147.739 44.7402 148.295 44.9684 148.606 45.1999C149.232 45.6653 149.336 46.4354 149.342 46.8547C149.354 47.6529 148.884 48.7672 148.313 49.2862C148.01 49.5614 147.528 49.9469 146.881 50.2665C147.208 50.8999 147.694 51.5093 148.365 52.0065C148.524 51.792 148.706 51.5969 148.909 51.4142C150.471 50.0586 151.7 50.1906 152.292 50.3942C152.96 50.6179 153.471 51.1325 153.587 51.7017C153.728 52.3777 153.4 53.4355 152.512 54.0542C151.859 54.5146 150.771 54.8391 149.115 54.1483C149.079 54.4799 149.099 54.7857 149.128 55.0159C149.218 55.7494 149.473 56.3583 149.72 56.7607C150.026 56.4991 150.274 56.2899 150.463 56.1332C152.241 54.6831 154.11 54.6766 155.035 55.4243C155.599 55.877 155.996 56.77 155.416 57.9247C155.095 58.5596 154.562 59.0136 153.869 59.2431C152.322 59.7528 150.45 59.0356 149.743 58.7199C146.742 61.3578 141.098 66.6328 137.338 71.5458L135.681 73.9261C135.468 74.265 135.039 74.358 134.706 74.1655V74.1655ZM135.21 46.7614C135.171 46.7389 135.13 46.7207 135.088 46.7026C134.859 46.6104 134.619 46.605 134.412 46.6933C134.199 46.7836 134.106 46.9146 134.087 47.1465C134.034 47.7795 134.578 48.856 135.491 49.5045L135.557 49.2306C135.568 49.191 135.577 49.1557 135.593 49.1185C135.596 49.1142 135.989 48.1119 135.624 47.2253C135.543 47.0345 135.396 46.8689 135.21 46.7614ZM154.037 56.5628C153.595 56.3078 152.509 56.4196 151.418 57.3084C151.31 57.396 151.185 57.5027 151.039 57.6261C151.81 57.8807 152.747 58.0468 153.414 57.8314C153.734 57.7274 153.946 57.5497 154.086 57.2669C154.247 56.9495 154.253 56.7281 154.105 56.614C154.082 56.5947 154.063 56.5778 154.037 56.5628V56.5628ZM140.981 44.9662C140.964 44.9562 140.946 44.9462 140.927 44.9406C140.742 44.8802 140.477 44.9584 140.334 45.0663C139.802 45.4689 139.531 46.0575 139.629 46.5987C139.699 46.9972 139.928 47.3896 140.316 47.7578C141.023 47.0341 141.473 46.2144 141.248 45.4034C141.183 45.1755 141.094 45.0312 140.981 44.9662V44.9662ZM151.963 51.8954C151.902 51.8604 151.819 51.8241 151.715 51.8044C151.222 51.6986 150.574 51.9711 149.891 52.564C149.813 52.6288 149.744 52.6986 149.683 52.7734C150.509 53.1231 151.181 53.159 151.629 52.8633C152.053 52.5886 152.137 52.1232 152.125 52.0239C152.115 52.0121 152.062 51.9529 151.963 51.8954V51.8954ZM147.698 46.4021C147.659 46.3796 147.526 46.3604 147.277 46.4306C146.614 46.6193 146.431 47.426 146.384 47.7681C146.34 48.0947 146.345 48.4557 146.398 48.833C146.765 48.6287 147.061 48.3956 147.291 48.1876C147.549 47.95 147.839 47.2573 147.83 46.8827C147.826 46.6204 147.754 46.4458 147.7 46.4089C147.702 46.4046 147.702 46.4046 147.698 46.4021V46.4021Z" fill="#FFD54F"/>
<path d="M134.706 74.1655L134.649 74.133C134.307 73.8952 134.226 73.4266 134.461 73.089L136.136 70.6784C139.904 65.7524 145.488 60.5007 148.584 57.7677C148.113 57.1033 147.759 56.177 147.64 55.2134C147.562 54.568 147.589 53.9604 147.723 53.4084C146.658 52.6836 145.917 51.7476 145.458 50.7725C144.36 51.0045 143.01 50.9526 141.455 50.2455C141.067 50.0676 140.71 49.8849 140.391 49.6888C139.803 50.1463 139.094 50.6145 138.226 51.0888C137.709 51.3736 137.142 51.4964 136.561 51.4616L131.881 70.8778C131.783 71.2773 131.378 71.5286 130.979 71.4307C130.579 71.3328 130.328 70.9279 130.426 70.5283L135.119 51.039C135.004 50.9783 134.883 50.9083 134.771 50.8322C133.413 49.9442 132.472 48.304 132.588 47.0139C132.658 46.2229 133.099 45.6177 133.823 45.3139C134.405 45.0666 135.054 45.072 135.658 45.3165C136.267 45.5704 136.764 46.0595 137.013 46.659C137.552 47.975 137.122 49.3201 137.005 49.6334L136.924 49.9623C137.116 49.9402 137.31 49.8847 137.505 49.7776C138.003 49.5051 138.595 49.1487 139.162 48.7369C138.607 48.1682 138.264 47.5428 138.146 46.857C137.954 45.759 138.446 44.617 139.425 43.8715C139.854 43.5478 140.629 43.2561 141.406 43.52C142.03 43.7299 142.486 44.2591 142.693 45.0018C142.95 45.9357 142.848 47.1929 141.555 48.6229C141.717 48.7111 141.894 48.7956 142.077 48.8783C143.198 49.3868 144.172 49.4699 144.982 49.3371C144.852 48.7021 144.832 48.0961 144.907 47.5562C145.093 46.2435 145.828 45.2818 146.876 44.9863C147.739 44.7402 148.295 44.9684 148.606 45.1999C149.232 45.6653 149.336 46.4354 149.342 46.8547C149.354 47.6529 148.884 48.7672 148.313 49.2862C148.01 49.5614 147.528 49.9469 146.881 50.2665C147.208 50.8999 147.694 51.5093 148.365 52.0065C148.524 51.792 148.706 51.5969 148.909 51.4142C150.471 50.0586 151.7 50.1906 152.292 50.3942C152.96 50.6179 153.471 51.1325 153.587 51.7017C153.728 52.3777 153.4 53.4355 152.512 54.0542C151.859 54.5146 150.771 54.8391 149.115 54.1483C149.079 54.4799 149.099 54.7857 149.128 55.0159C149.218 55.7494 149.473 56.3583 149.72 56.7607C150.026 56.4991 150.274 56.2899 150.463 56.1332C152.241 54.6831 154.11 54.6766 155.035 55.4243C155.599 55.877 155.996 56.77 155.416 57.9247C155.095 58.5596 154.562 59.0136 153.869 59.2431C152.322 59.7528 150.45 59.0356 149.743 58.7199C146.742 61.3578 141.098 66.6328 137.338 71.5458L135.681 73.9261C135.468 74.265 135.039 74.358 134.706 74.1655V74.1655ZM135.21 46.7614C135.171 46.7389 135.13 46.7207 135.088 46.7026C134.859 46.6104 134.619 46.605 134.412 46.6933C134.199 46.7836 134.106 46.9146 134.087 47.1465C134.034 47.7795 134.578 48.856 135.491 49.5045L135.557 49.2306C135.568 49.191 135.577 49.1557 135.593 49.1185C135.596 49.1142 135.989 48.1119 135.624 47.2253C135.543 47.0345 135.396 46.8689 135.21 46.7614ZM154.037 56.5628C153.595 56.3078 152.509 56.4196 151.418 57.3084C151.31 57.396 151.185 57.5027 151.039 57.6261C151.81 57.8807 152.747 58.0468 153.414 57.8314C153.734 57.7274 153.946 57.5497 154.086 57.2669C154.247 56.9495 154.253 56.7281 154.105 56.614C154.082 56.5947 154.063 56.5778 154.037 56.5628V56.5628ZM140.981 44.9662C140.964 44.9562 140.946 44.9462 140.927 44.9406C140.742 44.8802 140.477 44.9584 140.334 45.0663C139.802 45.4689 139.531 46.0575 139.629 46.5987C139.699 46.9972 139.928 47.3896 140.316 47.7578C141.023 47.0341 141.473 46.2144 141.248 45.4034C141.183 45.1755 141.094 45.0312 140.981 44.9662V44.9662ZM151.963 51.8954C151.902 51.8604 151.819 51.8241 151.715 51.8044C151.222 51.6986 150.574 51.9711 149.891 52.564C149.813 52.6288 149.744 52.6986 149.683 52.7734C150.509 53.1231 151.181 53.159 151.629 52.8633C152.053 52.5886 152.137 52.1232 152.125 52.0239C152.115 52.0121 152.062 51.9529 151.963 51.8954V51.8954ZM147.698 46.4021C147.659 46.3796 147.526 46.3604 147.277 46.4306C146.614 46.6193 146.431 47.426 146.384 47.7681C146.34 48.0947 146.345 48.4557 146.398 48.833C146.765 48.6287 147.061 48.3956 147.291 48.1876C147.549 47.95 147.839 47.2573 147.83 46.8827C147.826 46.6204 147.754 46.4458 147.7 46.4089C147.702 46.4046 147.702 46.4046 147.698 46.4021V46.4021Z" fill="#FDD835"/>
<g opacity="0.2">
<path opacity="0.2" d="M148.452 45.1056C148.509 45.1381 148.554 45.1699 148.603 45.2042C149.229 45.6697 149.333 46.4398 149.339 46.859C149.352 47.6573 148.882 48.7715 148.311 49.2905C148.008 49.5658 147.525 49.9512 146.879 50.2709C147.206 50.9043 147.691 51.5136 148.363 52.0109C148.521 51.7964 148.703 51.6012 148.907 51.4185C150.469 50.063 151.697 50.1949 152.29 50.3985C152.435 50.4475 152.572 50.5096 152.702 50.5846C153.161 50.8496 153.495 51.2616 153.585 51.706C153.726 52.382 153.398 53.4399 152.509 54.0586C151.857 54.5189 150.769 54.8434 149.112 54.1526C149.077 54.4842 149.096 54.7901 149.125 55.0203C149.215 55.7537 149.47 56.3626 149.717 56.765C150.024 56.5034 150.272 56.2943 150.46 56.1376C152.091 54.804 153.802 54.6895 154.789 55.2595C154.876 55.3095 154.96 55.3638 155.035 55.4243C155.599 55.877 155.996 56.77 155.416 57.9247C155.095 58.5596 154.562 59.0136 153.869 59.2431C152.322 59.7528 150.45 59.0356 149.743 58.7199C146.742 61.3578 141.098 66.6328 137.338 71.5458L135.681 73.9261C135.456 74.2464 135.027 74.3394 134.693 74.1469L134.637 74.1144C134.295 73.8765 134.213 73.4079 134.449 73.0704L136.123 70.6598C139.891 65.7337 145.475 60.4821 148.572 57.7491C148.101 57.0846 147.746 56.1584 147.627 55.1947C147.549 54.5494 147.577 53.9417 147.711 53.3897C146.658 52.6836 145.917 51.7476 145.458 50.7725C144.36 51.0045 143.01 50.9526 141.455 50.2455C141.134 50.1008 140.841 49.9488 140.568 49.7913L140.391 49.6888C139.803 50.1463 139.094 50.6145 138.226 51.0888C137.709 51.3736 137.142 51.4964 136.561 51.4616L131.881 70.8778C131.783 71.2774 131.378 71.5286 130.979 71.4307C130.908 71.413 130.843 71.3867 130.778 71.3492C130.496 71.1867 130.341 70.8548 130.424 70.5215L135.119 51.039C135.072 51.0115 135.022 50.9883 134.974 50.9608C134.905 50.9208 134.835 50.8808 134.764 50.834C133.406 49.9461 132.465 48.3058 132.581 47.0157C132.651 46.2247 133.093 45.6195 133.816 45.3158C134.398 45.0684 135.047 45.0738 135.651 45.3183C135.754 45.3604 135.851 45.411 135.947 45.466C136.419 45.7385 136.796 46.1644 137.004 46.6652C137.543 47.9811 137.113 49.3263 136.995 49.6395L136.915 49.9685C137.107 49.9464 137.301 49.8908 137.495 49.7838C137.993 49.5113 138.586 49.1548 139.153 48.7431C138.598 48.1744 138.254 47.5489 138.136 46.8631C137.945 45.7652 138.437 44.6231 139.416 43.8777C139.845 43.554 140.62 43.2622 141.397 43.5262C141.513 43.5645 141.618 43.6134 141.722 43.6734C142.181 43.9384 142.514 44.4019 142.683 45.0079C142.941 45.9418 142.838 47.1991 141.545 48.6291C141.708 48.7172 141.884 48.8017 142.067 48.8844C143.188 49.393 144.162 49.4761 144.972 49.3433C144.842 48.7082 144.823 48.1022 144.898 47.5624C145.084 46.2497 145.818 45.288 146.866 44.9925C147.61 44.775 148.123 44.9156 148.452 45.1056V45.1056ZM146.403 48.8355C146.769 48.6312 147.065 48.3981 147.295 48.1901C147.553 47.9525 147.844 47.2598 147.835 46.8852C147.83 46.6229 147.758 46.4483 147.704 46.4114L147.7 46.4089C147.661 46.3864 147.528 46.3672 147.279 46.4375C146.616 46.6261 146.433 47.4328 146.386 47.7749C146.342 48.0904 146.345 48.4557 146.403 48.8355V48.8355ZM140.316 47.7578C141.023 47.0341 141.473 46.2144 141.248 45.4034C141.188 45.178 141.098 45.0337 140.981 44.9662C140.964 44.9562 140.946 44.9462 140.927 44.9406C140.742 44.8802 140.477 44.9584 140.334 45.0663C139.802 45.4689 139.531 46.0575 139.629 46.5987C139.699 46.9972 139.928 47.3896 140.316 47.7578V47.7578ZM149.679 52.7709C150.505 53.1206 151.177 53.1565 151.625 52.8608C152.049 52.5861 152.133 52.1207 152.121 52.0214C152.117 52.0189 152.064 51.9598 151.965 51.9023C151.904 51.8673 151.821 51.8309 151.717 51.8112C151.224 51.7055 150.576 51.9779 149.893 52.5709C149.809 52.6263 149.74 52.6961 149.679 52.7709V52.7709ZM151.032 57.6279C151.803 57.8825 152.74 58.0486 153.407 57.8333C153.727 57.7292 153.939 57.5516 154.08 57.2688C154.24 56.9513 154.246 56.73 154.099 56.6158C154.08 56.599 154.054 56.584 154.032 56.5715C153.59 56.3165 152.504 56.4282 151.413 57.3171C151.307 57.4003 151.182 57.5071 151.032 57.6279V57.6279ZM135.489 49.5088L135.555 49.235C135.566 49.1953 135.575 49.16 135.591 49.1229C135.593 49.1185 135.987 48.1162 135.621 47.2296C135.543 47.0345 135.394 46.8732 135.203 46.7632C135.165 46.7407 135.123 46.7226 135.082 46.7044C134.852 46.6122 134.613 46.6068 134.406 46.6952C134.192 46.7854 134.099 46.9165 134.08 47.1483C134.027 47.7813 134.576 48.8604 135.489 49.5088ZM148.952 44.2395C148.485 43.9695 147.698 43.7118 146.6 44.0244C145.157 44.4329 144.154 45.701 143.914 47.416C143.871 47.7203 143.854 48.0396 143.864 48.3628C143.619 48.3369 143.369 48.2793 143.114 48.2013C143.946 46.8108 143.896 45.587 143.661 44.7351C143.421 43.8695 142.926 43.1969 142.234 42.7969C142.073 42.7044 141.903 42.6292 141.73 42.5695C140.583 42.1848 139.48 42.5756 138.826 43.0694C138.065 43.6465 137.535 44.4145 137.279 45.2481C137.042 44.9896 136.763 44.7713 136.456 44.5938C136.322 44.5163 136.183 44.4475 136.043 44.3898C135.195 44.0387 134.269 44.0414 133.44 44.3882C132.371 44.8392 131.7 45.7622 131.596 46.9208C131.455 48.4961 132.449 50.3747 133.983 51.4972L129.457 70.2865C129.277 71.0374 129.618 71.8284 130.284 72.2134C130.427 72.2959 130.587 72.3592 130.748 72.4002C131.203 72.5126 131.673 72.4378 132.069 72.1928C132.469 71.9502 132.749 71.5638 132.855 71.111L137.359 52.4189C137.827 52.3485 138.287 52.1924 138.709 51.9623C139.353 51.6067 139.943 51.2434 140.467 50.8761C140.65 50.97 140.843 51.0645 141.04 51.1547C142.348 51.7484 143.646 51.9899 144.913 51.8665C145.367 52.6196 145.948 53.2839 146.635 53.8426C146.584 54.3212 146.586 54.8186 146.651 55.3355C146.746 56.1117 146.979 56.8874 147.31 57.5636C144.602 59.9951 139.15 65.0978 135.343 70.0708L135.329 70.0857L135.317 70.1073L133.642 72.5179C133.093 73.3093 133.287 74.4029 134.078 74.9522C134.128 74.9865 134.167 75.009 134.206 75.0315C134.985 75.4815 136 75.2535 136.517 74.5184L138.16 72.1529C141.966 67.1799 147.683 61.9183 149.952 59.8973C150.985 60.2796 152.677 60.7083 154.19 60.2077C155.138 59.895 155.877 59.2651 156.315 58.3864C157.163 56.6989 156.495 55.326 155.668 54.6581C155.552 54.5683 155.43 54.4803 155.3 54.4053C154.932 54.1928 154.486 54.045 153.983 53.9857C154.543 53.177 154.719 52.2221 154.571 51.5076C154.419 50.7907 153.923 50.1404 153.204 49.7254C153.018 49.6179 152.817 49.5252 152.609 49.4566C151.82 49.192 150.219 48.9951 148.307 50.6165C148.301 50.6071 148.291 50.5953 148.282 50.5903C148.572 50.3882 148.804 50.187 148.981 50.0297C149.756 49.3168 150.349 47.9209 150.335 46.8449C150.324 46.2439 150.167 45.1256 149.198 44.4044C149.119 44.3414 149.035 44.287 148.952 44.2395V44.2395Z" fill="#FFFF8D"/>
</g>
<g opacity="0.2">
<path opacity="0.2" d="M153.963 35.0311C161.844 39.5811 164.552 49.6897 160.002 57.5705C158.175 60.7358 155.19 63.2448 151.371 64.821C147.459 66.4366 144.62 68.7639 143.582 71.2015C142.238 74.369 140.636 74.4543 140.149 74.3981L126.777 66.6781C126.485 66.2843 125.755 64.8583 127.829 62.1065C129.421 59.9889 130.017 56.3666 129.46 52.171C128.915 48.0748 129.596 44.2358 131.423 41.0705C135.973 33.1897 146.082 30.4811 153.963 35.0311ZM154.713 33.7321C146.105 28.7621 135.094 31.7122 130.124 40.3205C127.934 44.1137 127.439 48.3424 127.972 52.3685C128.462 56.0694 127.994 59.3902 126.628 61.2056C123.33 65.5886 125.819 67.8572 125.819 67.8572L139.606 75.8172C139.606 75.8172 142.816 76.8386 144.962 71.7906C145.852 69.7002 148.493 67.6344 151.944 66.2085C155.697 64.6574 159.111 62.1137 161.301 58.3205C166.271 49.7122 163.321 38.7021 154.713 33.7321V33.7321Z" fill="#424242"/>
</g>
</g>
<path d="M72.25 161.57C60.32 161.57 42.68 161.23 27.33 158.3C6.83001 154.39 5.30001 146.34 5.49001 138.43C5.65001 131.7 8.73001 109.17 11.77 99.95C16.37 86.01 23.4 72.15 27.68 66.19C33.55 58.02 48.43 44.89 63.39 44.44H63.53C65.51 44.44 67.48 45.74 68.66 47.83L74.51 58.15C75.91 60.63 75.88 63.68 74.43 66.12C73.24 68.12 69.78 68.66 69.75 68.67L67 69.07L68.85 71.16C68.84 71.16 69.46 72.14 68 74.26C66.7 76.15 64.17 77.06 60.28 77.06C56.63 77.06 52.47 76.23 49.13 75.57C48.93 75.53 48.72 75.51 48.51 75.51C47.27 75.51 45.99 76.2 44.83 77.5C43.33 79.17 38.6 85.96 40.52 103.17C41.47 111.71 38.64 119.4 38.61 119.48L37.42 122.66L40.57 121.4C40.6 121.38 45.4 119.5 52 119.5H52.7L53.15 118.96C53.29 118.79 67.09 102.48 85 102.48C96.7 102.48 107.9 107.22 114.96 115.16C119.94 120.76 122.27 127.39 121.51 133.82C118.57 158.8 95 161.5 85 161.5C83.6 161.5 81.96 161.51 80.13 161.53C77.8 161.55 75.15 161.57 72.25 161.57V161.57Z" fill="url(#paint3_linear)"/>
<path d="M63.54 45.95C64.96 45.95 66.46 46.98 67.37 48.58L73.22 58.9C74.36 60.91 74.33 63.39 73.16 65.37C72.59 66.33 70.66 67.03 69.56 67.2L64.03 67.98L67.47 71.86C67.46 72.06 67.35 72.57 66.77 73.41C65.78 74.84 63.6 75.57 60.28 75.57C56.78 75.57 52.7 74.76 49.43 74.11C49.13 74.05 48.82 74.02 48.52 74.02C47.35 74.02 45.56 74.45 43.72 76.51C39.45 81.28 37.7 91.31 39.03 103.34C39.93 111.47 37.23 118.89 37.2 118.96L34.84 125.27L41.12 122.8C41.15 122.77 45.72 121 52 121H53.41L54.31 119.92C54.44 119.76 67.83 103.98 85.01 103.98C96.29 103.98 107.07 108.53 113.85 116.16C118.54 121.44 120.74 127.65 120.03 133.65C118.94 142.89 114.83 149.83 107.8 154.3C100.36 159.01 91.3 160 85 160C83.6 160 81.96 160.01 80.12 160.03C77.79 160.05 75.14 160.07 72.26 160.07C60.39 160.07 42.84 159.73 27.62 156.83C18.65 155.12 12.83 152.53 9.80001 148.92C7.19001 145.81 6.92001 142.06 7.00001 138.47C7.16001 131.81 10.2 109.53 13.21 100.43C17.6 87.13 24.64 73.03 28.92 67.08C34.62 59.14 49.04 46.39 63.45 45.96L63.54 45.95V45.95ZM63.54 42.95H63.36C47.55 43.42 32.26 57.26 26.48 65.32C22.07 71.47 14.94 85.62 10.36 99.48C7.34001 108.64 4.17001 131.25 4.00001 138.39C3.79001 147.12 5.85001 155.72 27.06 159.77C42.15 162.65 59.53 163.07 72.26 163.07C77.43 163.07 81.83 163 85 163C102 163 120.39 156.21 123 134C125 117 107 100.98 85 100.98C66.15 100.98 52 118 52 118C45 118 40 120 40 120C40 120 43 112 42 103C40.01 85.06 45.4 77.01 48.51 77.01C48.62 77.01 48.73 77.02 48.84 77.04C52.3 77.73 56.5 78.56 60.28 78.56C64.06 78.56 67.42 77.73 69.23 75.11C71.48 71.86 69.97 70.16 69.97 70.16C69.97 70.16 74.14 69.57 75.73 66.89C77.46 63.98 77.5 60.36 75.83 57.41L69.97 47.09C68.64 44.74 66.23 42.95 63.54 42.95V42.95Z" fill="#EDA600"/>
<path d="M62.78 57.52C60.27 57.05 57.28 56.95 54.95 58.13C52.06 59.6 51.05 63.41 52.73 66.18C55.25 70.31 62.06 70.71 66.37 70.54C68.29 70.46 68.3 67.46 66.37 67.54C63.26 67.66 59.38 67.5 56.67 65.85C54.73 64.66 54.07 61.94 56.46 60.73C58 59.94 60.31 60.11 61.97 60.42C63.87 60.76 64.68 57.87 62.78 57.52Z" fill="#EDA600"/>
<path d="M36.2 121.74C31.4 128.73 30.16 135.76 31.86 144.04C32.25 145.93 35.14 145.13 34.75 143.24C33.21 135.72 34.43 129.6 38.79 123.25C39.89 121.66 37.29 120.16 36.2 121.74Z" fill="#EDA600"/>
<path d="M47.77 73.91C45.55 73.59 42.38 70.9 41.06 68.06C40.66 67.2 40.83 65.98 39.26 65.89C37.09 65.77 38.68 70.13 39.42 71.2C41.45 74.11 44.2 75.74 47.8 76C49.73 76.14 49.75 74.19 47.77 73.91Z" fill="#EDA600"/>
<path d="M53.55 131.4C56.07 141.81 65.51 149.57 75.92 150.98C85.97 152.34 102.85 150.01 107.8 139.26C108.6 137.52 106.02 135.99 105.21 137.75C100.68 147.6 84.51 149.46 75.43 147.9C66.54 146.37 58.6 139.53 56.45 130.61C55.99 128.73 53.1 129.52 53.55 131.4V131.4Z" fill="#EDA600"/>
<defs>
<radialGradient id="paint0_radial" cx="0" cy="0" r="1" gradientUnits="userSpaceOnUse" gradientTransform="translate(127.831 80.4213) rotate(120) scale(6.698 11.8749)">
<stop stop-color="#1E88E5"/>
<stop offset="0.9869" stop-color="#0D47A1"/>
</radialGradient>
<linearGradient id="paint1_linear" x1="133.9" y1="69.7804" x2="127.373" y2="81.0863" gradientUnits="userSpaceOnUse">
<stop stop-color="#90CAF9"/>
<stop offset="0.1981" stop-color="#88C6F9"/>
<stop offset="0.5085" stop-color="#72BCF7"/>
<stop offset="0.8905" stop-color="#4DAAF6"/>
<stop offset="0.9957" stop-color="#42A5F5"/>
</linearGradient>
<radialGradient id="paint2_radial" cx="0" cy="0" r="1" gradientUnits="userSpaceOnUse" gradientTransform="translate(154.594 34.3129) rotate(30) scale(45.5645)">
<stop stop-color="#FFF59D"/>
<stop offset="0.1485" stop-color="#FFF599"/>
<stop offset="0.3111" stop-color="#FFF38B"/>
<stop offset="0.4772" stop-color="#FFF176"/>
<stop offset="0.7791" stop-color="#FFED51"/>
<stop offset="0.9957" stop-color="#FFEB3B"/>
</radialGradient>
<linearGradient id="paint3_linear" x1="63.565" y1="153.7" x2="63.565" y2="57.8" gradientUnits="userSpaceOnUse">
<stop stop-color="#FFB300"/>
<stop offset="0.4007" stop-color="#FFCA28"/>
</linearGradient>
<clipPath id="clip0">
<rect width="64" height="64" fill="white" transform="translate(128 16) rotate(30)"/>
</clipPath>
</defs>
</svg>
