<svg width="165" height="165" viewBox="0 0 165 165" fill="none" xmlns="http://www.w3.org/2000/svg">
<path d="M125 66V68L128.405 73.11C128.775 73.665 129.4 74 130.07 74H135.93C136.6 74 137.225 73.665 137.595 73.11L141 68V66H125Z" fill="url(#paint0_radial)"/>
<path d="M141 55.25H125V68H141V55.25Z" fill="url(#paint1_linear)"/>
<g opacity="0.2">
<path opacity="0.2" d="M139.5 56.75V67.545L136.345 72.275C136.25 72.415 136.095 72.5 135.93 72.5H130.07C129.9 72.5 129.745 72.415 129.655 72.275L126.5 67.545V56.75H139.5ZM141 55.25H125V68L128.405 73.11C128.775 73.665 129.4 74 130.07 74H135.93C136.6 74 137.225 73.665 137.595 73.11L141 68V55.25Z" fill="#424242"/>
</g>
<path d="M140.895 60L125.455 63.12C124.9 63.235 124.35 62.87 124.235 62.31L124.175 62C124.06 61.445 124.425 60.895 124.985 60.78L140.425 57.66C140.98 57.545 141.53 57.91 141.645 58.47L141.705 58.78C141.815 59.34 141.455 59.89 140.895 60Z" fill="#BBDEFB"/>
<path d="M140.895 64.86L125.455 67.98C124.9 68.095 124.35 67.73 124.235 67.17L124.175 66.86C124.06 66.305 124.425 65.755 124.985 65.64L140.425 62.52C140.98 62.405 141.53 62.77 141.645 63.33L141.705 63.64C141.815 64.2 141.455 64.75 140.895 64.86Z" fill="#90CAF9"/>
<path d="M151 32C151 22.06 142.94 14 133 14C123.06 14 115 22.06 115 32C115 36.38 116.685 40.29 119.16 43.51C121.435 46.47 122.69 49.58 122.415 51.835C121.75 57.28 125.04 58 125.04 58H140.96C140.96 58 144.25 57.28 143.585 51.835C143.31 49.58 144.565 46.47 146.84 43.51C149.315 40.29 151 36.38 151 32Z" fill="url(#paint2_radial)"/>
<path d="M135.89 59.02H135.825C135.41 58.985 135.105 58.62 135.14 58.21L135.385 55.285C136.185 49.135 138.395 41.795 139.71 37.88C138.97 37.54 138.2 36.915 137.615 36.14C137.225 35.62 136.945 35.08 136.785 34.535C135.5 34.44 134.39 34 133.505 33.385C132.67 34.135 131.475 34.765 129.775 34.93C129.35 34.97 128.95 34.99 128.575 34.98C128.295 35.67 127.915 36.43 127.4 37.275C127.095 37.78 126.665 38.17 126.145 38.43L131.8 57.585C131.915 57.98 131.69 58.4 131.295 58.515C130.9 58.63 130.48 58.405 130.365 58.01L124.685 38.785C124.555 38.79 124.415 38.79 124.28 38.78C122.66 38.69 121.025 37.74 120.48 36.565C120.145 35.845 120.225 35.1 120.7 34.475C121.08 33.97 121.645 33.65 122.29 33.56C122.945 33.475 123.62 33.65 124.135 34.045C125.26 34.915 125.56 36.295 125.615 36.625L125.71 36.95C125.865 36.835 126.005 36.69 126.12 36.5C126.415 36.015 126.75 35.41 127.035 34.77C126.27 34.555 125.66 34.185 125.215 33.65C124.5 32.795 124.355 31.56 124.83 30.425C125.04 29.93 125.565 29.29 126.37 29.13C127.015 29 127.675 29.23 128.225 29.77C128.915 30.45 129.455 31.59 129.05 33.475C129.235 33.47 129.43 33.455 129.63 33.435C130.855 33.315 131.74 32.9 132.375 32.38C131.945 31.895 131.625 31.38 131.42 30.875C130.925 29.645 131.08 28.445 131.84 27.665C132.465 27.02 133.06 26.94 133.445 26.985C134.22 27.075 134.695 27.69 134.91 28.05C135.32 28.735 135.47 29.935 135.235 30.67C135.11 31.06 134.885 31.635 134.485 32.235C135.085 32.62 135.81 32.905 136.64 33C136.67 32.735 136.73 32.475 136.815 32.215C137.49 30.26 138.62 29.76 139.235 29.64C139.925 29.5 140.625 29.69 141.01 30.125C141.47 30.64 141.715 31.72 141.255 32.7C140.92 33.425 140.14 34.25 138.36 34.48C138.495 34.785 138.665 35.04 138.805 35.225C139.25 35.815 139.775 36.215 140.19 36.44C140.325 36.06 140.435 35.755 140.52 35.525C141.335 33.38 142.95 32.44 144.125 32.625C144.84 32.735 145.63 33.31 145.705 34.6C145.745 35.31 145.51 35.97 145.025 36.515C143.94 37.73 141.96 38.045 141.19 38.125C139.91 41.91 137.66 49.3 136.86 55.435L136.615 58.325C136.6 58.725 136.275 59.02 135.89 59.02ZM122.625 35.035C122.58 35.035 122.535 35.04 122.49 35.045C122.245 35.08 122.035 35.195 121.9 35.375C121.76 35.56 121.745 35.72 121.845 35.93C122.115 36.505 123.125 37.165 124.24 37.27L124.16 37C124.15 36.96 124.14 36.925 124.135 36.885C124.135 36.88 123.975 35.815 123.215 35.23C123.05 35.105 122.84 35.035 122.625 35.035ZM143.83 34.11C143.32 34.11 142.435 34.75 141.935 36.065C141.885 36.195 141.83 36.35 141.765 36.53C142.56 36.365 143.455 36.04 143.925 35.52C144.15 35.27 144.245 35.01 144.225 34.695C144.205 34.34 144.1 34.145 143.915 34.12C143.885 34.115 143.86 34.11 143.83 34.11ZM126.725 30.595C126.705 30.595 126.685 30.595 126.665 30.6C126.475 30.64 126.285 30.84 126.215 31.005C125.955 31.62 126.015 32.265 126.37 32.685C126.63 32.995 127.025 33.22 127.545 33.345C127.795 32.365 127.775 31.43 127.175 30.84C127.005 30.675 126.855 30.595 126.725 30.595ZM139.7 31.105C139.63 31.105 139.54 31.115 139.44 31.15C138.96 31.305 138.535 31.865 138.24 32.72C138.205 32.815 138.18 32.91 138.165 33.005C139.055 32.895 139.655 32.59 139.895 32.11C140.125 31.66 139.965 31.215 139.905 31.135C139.89 31.13 139.815 31.105 139.7 31.105ZM133.26 28.48C133.215 28.48 133.09 28.53 132.91 28.715C132.43 29.21 132.675 30 132.805 30.32C132.93 30.625 133.115 30.935 133.35 31.235C133.565 30.875 133.705 30.525 133.8 30.23C133.905 29.895 133.81 29.15 133.615 28.83C133.48 28.605 133.33 28.49 133.265 28.485C133.265 28.48 133.265 28.48 133.26 28.48Z" fill="#FFD54F"/>
<path d="M135.89 59.02H135.825C135.41 58.985 135.105 58.62 135.14 58.21L135.385 55.285C136.185 49.135 138.395 41.795 139.71 37.88C138.97 37.54 138.2 36.915 137.615 36.14C137.225 35.62 136.945 35.08 136.785 34.535C135.5 34.44 134.39 34 133.505 33.385C132.67 34.135 131.475 34.765 129.775 34.93C129.35 34.97 128.95 34.99 128.575 34.98C128.295 35.67 127.915 36.43 127.4 37.275C127.095 37.78 126.665 38.17 126.145 38.43L131.8 57.585C131.915 57.98 131.69 58.4 131.295 58.515C130.9 58.63 130.48 58.405 130.365 58.01L124.685 38.785C124.555 38.79 124.415 38.79 124.28 38.78C122.66 38.69 121.025 37.74 120.48 36.565C120.145 35.845 120.225 35.1 120.7 34.475C121.08 33.97 121.645 33.65 122.29 33.56C122.945 33.475 123.62 33.65 124.135 34.045C125.26 34.915 125.56 36.295 125.615 36.625L125.71 36.95C125.865 36.835 126.005 36.69 126.12 36.5C126.415 36.015 126.75 35.41 127.035 34.77C126.27 34.555 125.66 34.185 125.215 33.65C124.5 32.795 124.355 31.56 124.83 30.425C125.04 29.93 125.565 29.29 126.37 29.13C127.015 29 127.675 29.23 128.225 29.77C128.915 30.45 129.455 31.59 129.05 33.475C129.235 33.47 129.43 33.455 129.63 33.435C130.855 33.315 131.74 32.9 132.375 32.38C131.945 31.895 131.625 31.38 131.42 30.875C130.925 29.645 131.08 28.445 131.84 27.665C132.465 27.02 133.06 26.94 133.445 26.985C134.22 27.075 134.695 27.69 134.91 28.05C135.32 28.735 135.47 29.935 135.235 30.67C135.11 31.06 134.885 31.635 134.485 32.235C135.085 32.62 135.81 32.905 136.64 33C136.67 32.735 136.73 32.475 136.815 32.215C137.49 30.26 138.62 29.76 139.235 29.64C139.925 29.5 140.625 29.69 141.01 30.125C141.47 30.64 141.715 31.72 141.255 32.7C140.92 33.425 140.14 34.25 138.36 34.48C138.495 34.785 138.665 35.04 138.805 35.225C139.25 35.815 139.775 36.215 140.19 36.44C140.325 36.06 140.435 35.755 140.52 35.525C141.335 33.38 142.95 32.44 144.125 32.625C144.84 32.735 145.63 33.31 145.705 34.6C145.745 35.31 145.51 35.97 145.025 36.515C143.94 37.73 141.96 38.045 141.19 38.125C139.91 41.91 137.66 49.3 136.86 55.435L136.615 58.325C136.6 58.725 136.275 59.02 135.89 59.02ZM122.625 35.035C122.58 35.035 122.535 35.04 122.49 35.045C122.245 35.08 122.035 35.195 121.9 35.375C121.76 35.56 121.745 35.72 121.845 35.93C122.115 36.505 123.125 37.165 124.24 37.27L124.16 37C124.15 36.96 124.14 36.925 124.135 36.885C124.135 36.88 123.975 35.815 123.215 35.23C123.05 35.105 122.84 35.035 122.625 35.035ZM143.83 34.11C143.32 34.11 142.435 34.75 141.935 36.065C141.885 36.195 141.83 36.35 141.765 36.53C142.56 36.365 143.455 36.04 143.925 35.52C144.15 35.27 144.245 35.01 144.225 34.695C144.205 34.34 144.1 34.145 143.915 34.12C143.885 34.115 143.86 34.11 143.83 34.11ZM126.725 30.595C126.705 30.595 126.685 30.595 126.665 30.6C126.475 30.64 126.285 30.84 126.215 31.005C125.955 31.62 126.015 32.265 126.37 32.685C126.63 32.995 127.025 33.22 127.545 33.345C127.795 32.365 127.775 31.43 127.175 30.84C127.005 30.675 126.855 30.595 126.725 30.595ZM139.7 31.105C139.63 31.105 139.54 31.115 139.44 31.15C138.96 31.305 138.535 31.865 138.24 32.72C138.205 32.815 138.18 32.91 138.165 33.005C139.055 32.895 139.655 32.59 139.895 32.11C140.125 31.66 139.965 31.215 139.905 31.135C139.89 31.13 139.815 31.105 139.7 31.105ZM133.26 28.48C133.215 28.48 133.09 28.53 132.91 28.715C132.43 29.21 132.675 30 132.805 30.32C132.93 30.625 133.115 30.935 133.35 31.235C133.565 30.875 133.705 30.525 133.8 30.23C133.905 29.895 133.81 29.15 133.615 28.83C133.48 28.605 133.33 28.49 133.265 28.485C133.265 28.48 133.265 28.48 133.26 28.48Z" fill="#FDD835"/>
<g opacity="0.2">
<path opacity="0.2" d="M133.265 26.98C133.33 26.98 133.385 26.985 133.445 26.99C134.22 27.08 134.695 27.695 134.91 28.055C135.32 28.74 135.47 29.94 135.235 30.675C135.11 31.065 134.885 31.64 134.485 32.24C135.085 32.625 135.81 32.91 136.64 33.005C136.67 32.74 136.73 32.48 136.815 32.22C137.49 30.265 138.62 29.765 139.235 29.645C139.385 29.615 139.535 29.6 139.685 29.6C140.215 29.6 140.71 29.79 141.01 30.13C141.47 30.645 141.715 31.725 141.255 32.705C140.92 33.43 140.14 34.255 138.36 34.485C138.495 34.79 138.665 35.045 138.805 35.23C139.25 35.82 139.775 36.22 140.19 36.445C140.325 36.065 140.435 35.76 140.52 35.53C141.265 33.56 142.69 32.605 143.83 32.605C143.93 32.605 144.03 32.61 144.125 32.625C144.84 32.735 145.63 33.31 145.705 34.6C145.745 35.31 145.51 35.97 145.025 36.515C143.94 37.73 141.96 38.045 141.19 38.125C139.91 41.91 137.66 49.3 136.86 55.435L136.615 58.325C136.58 58.715 136.255 59.01 135.87 59.01H135.805C135.39 58.975 135.085 58.61 135.12 58.2L135.365 55.275C136.165 49.125 138.375 41.785 139.69 37.87C138.95 37.53 138.18 36.905 137.595 36.13C137.205 35.61 136.925 35.07 136.765 34.525C135.5 34.44 134.39 34 133.505 33.385C132.67 34.135 131.475 34.765 129.775 34.93C129.425 34.965 129.095 34.98 128.78 34.98H128.575C128.295 35.67 127.915 36.43 127.4 37.275C127.095 37.78 126.665 38.17 126.145 38.43L131.8 57.585C131.915 57.98 131.69 58.4 131.295 58.515C131.225 58.535 131.155 58.545 131.08 58.545C130.755 58.545 130.455 58.335 130.36 58.005L124.685 38.785C124.63 38.785 124.575 38.79 124.52 38.79C124.44 38.79 124.36 38.79 124.275 38.785C122.655 38.695 121.02 37.745 120.475 36.57C120.14 35.85 120.22 35.105 120.695 34.48C121.075 33.975 121.64 33.655 122.285 33.565C122.395 33.55 122.505 33.545 122.615 33.545C123.16 33.545 123.7 33.725 124.13 34.055C125.255 34.925 125.555 36.305 125.61 36.635L125.705 36.96C125.86 36.845 126 36.7 126.115 36.51C126.41 36.025 126.745 35.42 127.03 34.78C126.265 34.565 125.655 34.195 125.21 33.66C124.495 32.805 124.35 31.57 124.825 30.435C125.035 29.94 125.56 29.3 126.365 29.14C126.485 29.115 126.6 29.105 126.72 29.105C127.25 29.105 127.77 29.34 128.22 29.78C128.91 30.46 129.45 31.6 129.045 33.485C129.23 33.48 129.425 33.465 129.625 33.445C130.85 33.325 131.735 32.91 132.37 32.39C131.94 31.905 131.62 31.39 131.415 30.885C130.92 29.655 131.075 28.455 131.835 27.675C132.37 27.115 132.885 26.98 133.265 26.98ZM133.355 31.235C133.57 30.875 133.71 30.525 133.805 30.23C133.91 29.895 133.815 29.15 133.62 28.83C133.485 28.605 133.335 28.49 133.27 28.485H133.265C133.22 28.485 133.095 28.535 132.915 28.72C132.435 29.215 132.68 30.005 132.81 30.325C132.93 30.62 133.115 30.935 133.355 31.235ZM127.545 33.345C127.795 32.365 127.775 31.43 127.175 30.84C127.01 30.675 126.86 30.595 126.725 30.595C126.705 30.595 126.685 30.595 126.665 30.6C126.475 30.64 126.285 30.84 126.215 31.005C125.955 31.62 126.015 32.265 126.37 32.685C126.63 32.995 127.025 33.22 127.545 33.345ZM138.16 33.005C139.05 32.895 139.65 32.59 139.89 32.11C140.12 31.66 139.96 31.215 139.9 31.135C139.895 31.135 139.82 31.11 139.705 31.11C139.635 31.11 139.545 31.12 139.445 31.155C138.965 31.31 138.54 31.87 138.245 32.725C138.2 32.815 138.175 32.91 138.16 33.005ZM141.76 36.535C142.555 36.37 143.45 36.045 143.92 35.525C144.145 35.275 144.24 35.015 144.22 34.7C144.2 34.345 144.095 34.15 143.91 34.125C143.885 34.12 143.855 34.12 143.83 34.12C143.32 34.12 142.435 34.76 141.935 36.075C141.885 36.2 141.83 36.355 141.76 36.535ZM124.24 37.275L124.16 37.005C124.15 36.965 124.14 36.93 124.135 36.89C124.135 36.885 123.975 35.82 123.215 35.235C123.05 35.105 122.84 35.04 122.62 35.04C122.575 35.04 122.53 35.045 122.485 35.05C122.24 35.085 122.03 35.2 121.895 35.38C121.755 35.565 121.74 35.725 121.84 35.935C122.11 36.51 123.125 37.17 124.24 37.275ZM133.265 25.98C132.725 25.98 131.915 26.15 131.12 26.97C130.075 28.045 129.84 29.645 130.49 31.25C130.605 31.535 130.75 31.82 130.92 32.095C130.695 32.195 130.45 32.27 130.19 32.33C130.215 30.71 129.56 29.675 128.93 29.055C128.29 28.425 127.525 28.09 126.725 28.09C126.54 28.09 126.355 28.11 126.175 28.145C124.99 28.385 124.23 29.275 123.91 30.03C123.54 30.91 123.465 31.84 123.66 32.69C123.325 32.585 122.975 32.535 122.62 32.535C122.465 32.535 122.31 32.545 122.16 32.565C121.25 32.685 120.45 33.15 119.905 33.865C119.205 34.79 119.085 35.925 119.575 36.98C120.24 38.415 122.04 39.545 123.93 39.75L129.405 58.285C129.625 59.025 130.315 59.54 131.085 59.54C131.25 59.54 131.42 59.515 131.58 59.47C132.03 59.34 132.4 59.04 132.62 58.63C132.845 58.22 132.895 57.745 132.76 57.3L127.315 38.86C127.685 38.565 128.005 38.2 128.255 37.79C128.635 37.16 128.965 36.55 129.235 35.97C129.44 35.96 129.655 35.945 129.87 35.925C131.3 35.785 132.545 35.345 133.58 34.605C134.35 35.03 135.185 35.315 136.06 35.455C136.255 35.895 136.505 36.325 136.82 36.74C137.29 37.365 137.88 37.92 138.505 38.34C137.375 41.8 135.205 48.945 134.395 55.155L134.39 55.175V55.2L134.145 58.125C134.065 59.085 134.78 59.935 135.74 60.015C135.8 60.02 135.845 60.02 135.89 60.02C136.79 60.02 137.555 59.315 137.635 58.42L137.875 55.55C138.685 49.34 141.005 41.925 141.96 39.04C143.045 38.855 144.725 38.38 145.785 37.19C146.45 36.445 146.775 35.53 146.715 34.55C146.605 32.665 145.34 31.81 144.29 31.645C144.145 31.625 143.995 31.61 143.845 31.61C143.42 31.61 142.96 31.705 142.495 31.905C142.575 30.925 142.25 30.01 141.765 29.465C141.275 28.92 140.52 28.605 139.69 28.605C139.475 28.605 139.255 28.625 139.04 28.67C138.225 28.835 136.74 29.465 135.895 31.825C135.885 31.82 135.87 31.815 135.86 31.815C136.01 31.495 136.11 31.205 136.185 30.98C136.5 29.975 136.315 28.47 135.765 27.545C135.455 27.03 134.76 26.14 133.56 26C133.46 25.985 133.36 25.98 133.265 25.98Z" fill="#FFFF8D"/>
</g>
<g opacity="0.2">
<path opacity="0.2" d="M133 15.5C142.1 15.5 149.5 22.9 149.5 32C149.5 35.655 148.17 39.32 145.65 42.595C143.07 45.95 141.775 49.385 142.095 52.015C142.515 55.43 141.17 56.305 140.72 56.5H125.28C124.83 56.305 123.485 55.435 123.905 52.015C124.225 49.385 122.93 45.95 120.35 42.595C117.83 39.32 116.5 35.655 116.5 32C116.5 22.9 123.9 15.5 133 15.5ZM133 14C123.06 14 115 22.06 115 32C115 36.38 116.685 40.29 119.16 43.51C121.435 46.47 122.69 49.58 122.415 51.835C121.75 57.28 125.04 58 125.04 58H140.96C140.96 58 144.25 57.28 143.585 51.835C143.31 49.58 144.565 46.47 146.84 43.51C149.315 40.29 151 36.38 151 32C151 22.06 142.94 14 133 14Z" fill="#424242"/>
</g>
<path d="M72.25 148.57C60.32 148.57 42.68 148.23 27.33 145.3C6.83001 141.39 5.30001 133.34 5.49001 125.43C5.65001 118.7 8.73001 96.17 11.77 86.95C16.37 73.01 23.4 59.15 27.68 53.19C33.55 45.02 48.43 31.89 63.39 31.44H63.53C65.51 31.44 67.48 32.74 68.66 34.83L74.51 45.15C75.91 47.63 75.88 50.68 74.43 53.12C73.24 55.12 69.78 55.66 69.75 55.67L67 56.07L68.85 58.16C68.84 58.16 69.46 59.14 68 61.26C66.7 63.15 64.17 64.06 60.28 64.06C56.63 64.06 52.47 63.23 49.13 62.57C48.93 62.53 48.72 62.51 48.51 62.51C47.27 62.51 45.99 63.2 44.83 64.5C43.33 66.17 38.6 72.96 40.52 90.17C41.47 98.71 38.64 106.4 38.61 106.48L37.42 109.66L40.57 108.4C40.6 108.38 45.4 106.5 52 106.5H52.7L53.15 105.96C53.29 105.79 67.09 89.48 85 89.48C96.7 89.48 107.9 94.22 114.96 102.16C119.94 107.76 122.27 114.39 121.51 120.82C118.57 145.8 95 148.5 85 148.5C83.6 148.5 81.96 148.51 80.13 148.53C77.8 148.55 75.15 148.57 72.25 148.57Z" fill="url(#paint3_linear)"/>
<path d="M63.54 32.95C64.96 32.95 66.46 33.98 67.37 35.58L73.22 45.9C74.36 47.91 74.33 50.39 73.16 52.37C72.59 53.33 70.66 54.03 69.56 54.2L64.03 54.98L67.47 58.86C67.46 59.06 67.35 59.57 66.77 60.41C65.78 61.84 63.6 62.57 60.28 62.57C56.78 62.57 52.7 61.76 49.43 61.11C49.13 61.05 48.82 61.02 48.52 61.02C47.35 61.02 45.56 61.45 43.72 63.51C39.45 68.28 37.7 78.31 39.03 90.34C39.93 98.47 37.23 105.89 37.2 105.96L34.84 112.27L41.12 109.8C41.15 109.77 45.72 108 52 108H53.41L54.31 106.92C54.44 106.76 67.83 90.98 85.01 90.98C96.29 90.98 107.07 95.53 113.85 103.16C118.54 108.44 120.74 114.65 120.03 120.65C118.94 129.89 114.83 136.83 107.8 141.3C100.36 146.01 91.3 147 85 147C83.6 147 81.96 147.01 80.12 147.03C77.79 147.05 75.14 147.07 72.26 147.07C60.39 147.07 42.84 146.73 27.62 143.83C18.65 142.12 12.83 139.53 9.80001 135.92C7.19001 132.81 6.92001 129.06 7.00001 125.47C7.16001 118.81 10.2 96.53 13.21 87.43C17.6 74.13 24.64 60.03 28.92 54.08C34.62 46.14 49.04 33.39 63.45 32.96L63.54 32.95ZM63.54 29.95H63.36C47.55 30.42 32.26 44.26 26.48 52.32C22.07 58.47 14.94 72.62 10.36 86.48C7.34001 95.64 4.17001 118.25 4.00001 125.39C3.79001 134.12 5.85001 142.72 27.06 146.77C42.15 149.65 59.53 150.07 72.26 150.07C77.43 150.07 81.83 150 85 150C102 150 120.39 143.21 123 121C125 104 107 87.98 85 87.98C66.15 87.98 52 105 52 105C45 105 40 107 40 107C40 107 43 99 42 90C40.01 72.06 45.4 64.01 48.51 64.01C48.62 64.01 48.73 64.02 48.84 64.04C52.3 64.73 56.5 65.56 60.28 65.56C64.06 65.56 67.42 64.73 69.23 62.11C71.48 58.86 69.97 57.16 69.97 57.16C69.97 57.16 74.14 56.57 75.73 53.89C77.46 50.98 77.5 47.36 75.83 44.41L69.97 34.09C68.64 31.74 66.23 29.95 63.54 29.95Z" fill="#EDA600"/>
<path d="M62.78 44.52C60.27 44.05 57.28 43.95 54.95 45.13C52.06 46.6 51.05 50.41 52.73 53.18C55.25 57.31 62.06 57.71 66.37 57.54C68.29 57.46 68.3 54.46 66.37 54.54C63.26 54.66 59.38 54.5 56.67 52.85C54.73 51.66 54.07 48.94 56.46 47.73C58 46.94 60.31 47.11 61.97 47.42C63.87 47.76 64.68 44.87 62.78 44.52Z" fill="#EDA600"/>
<path d="M36.2 108.74C31.4 115.73 30.16 122.76 31.86 131.04C32.25 132.93 35.14 132.13 34.75 130.24C33.21 122.72 34.43 116.6 38.79 110.25C39.89 108.66 37.29 107.16 36.2 108.74Z" fill="#EDA600"/>
<path d="M47.77 60.91C45.55 60.59 42.38 57.9 41.06 55.06C40.66 54.2 40.83 52.98 39.26 52.89C37.09 52.77 38.68 57.13 39.42 58.2C41.45 61.11 44.2 62.74 47.8 63C49.73 63.14 49.75 61.19 47.77 60.91Z" fill="#EDA600"/>
<path d="M53.55 118.4C56.07 128.81 65.51 136.57 75.92 137.98C85.97 139.34 102.85 137.01 107.8 126.26C108.6 124.52 106.02 122.99 105.21 124.75C100.68 134.6 84.51 136.46 75.43 134.9C66.54 133.37 58.6 126.53 56.45 117.61C55.99 115.73 53.1 116.52 53.55 118.4Z" fill="#EDA600"/>
<defs>
<radialGradient id="paint0_radial" cx="0" cy="0" r="1" gradientUnits="userSpaceOnUse" gradientTransform="translate(133.064 67.875) rotate(90) scale(6.698 11.8749)">
<stop stop-color="#1E88E5"/>
<stop offset="0.9869" stop-color="#0D47A1"/>
</radialGradient>
<linearGradient id="paint1_linear" x1="133" y1="55.625" x2="133" y2="68.68" gradientUnits="userSpaceOnUse">
<stop stop-color="#90CAF9"/>
<stop offset="0.1981" stop-color="#88C6F9"/>
<stop offset="0.5085" stop-color="#72BCF7"/>
<stop offset="0.8905" stop-color="#4DAAF6"/>
<stop offset="0.9957" stop-color="#42A5F5"/>
</linearGradient>
<radialGradient id="paint2_radial" cx="0" cy="0" r="1" gradientUnits="userSpaceOnUse" gradientTransform="translate(133.187 14.5625) scale(45.5645)">
<stop stop-color="#FFF59D"/>
<stop offset="0.1485" stop-color="#FFF599"/>
<stop offset="0.3111" stop-color="#FFF38B"/>
<stop offset="0.4772" stop-color="#FFF176"/>
<stop offset="0.7791" stop-color="#FFED51"/>
<stop offset="0.9957" stop-color="#FFEB3B"/>
</radialGradient>
<linearGradient id="paint3_linear" x1="63.565" y1="140.7" x2="63.565" y2="44.8" gradientUnits="userSpaceOnUse">
<stop stop-color="#FFB300"/>
<stop offset="0.4007" stop-color="#FFCA28"/>
</linearGradient>
</defs>
</svg>
